# xmcd CD database file
#
# Track frame offsets:
#	177
#	18782
#	38182
#	54005
#	84880
#	102462
#	126462
#	142305
#
# Disc length: 2263 seconds
#
# Revision: 0
# Processed by: cddbd v1.5.2PL0 Copyright (c) Steve Scherf et al.
# Submitted via: CDex 1.51
#
DISCID=6408d508
DTITLE=Chick Willis - Now
DYEAR=1988
DGENRE=Blues
TTITLE0=I want a big fat woman
TTITLE1=For your precious love
TTITLE2=What have you got on me
TTITLE3=Stoop down '88
TTITLE4=I want to play with your poodle
TTITLE5=It's all over
TTITLE6=I can't stop loving you
TTITLE7=Garbage man
EXTD=YEAR: 1988
EXTT0=
EXTT1=
EXTT2=
EXTT3=
EXTT4=
EXTT5=
EXTT6=
EXTT7=
PLAYORDER=
